<svg width="1280" height="770" viewBox="0 0 1280 770" fill="none" xmlns="http://www.w3.org/2000/svg">
<rect width="1280" height="770" fill="white"/>
<path d="M86 649.5H1221C1222.93 649.5 1224.5 651.067 1224.5 653V701C1224.5 702.933 1222.93 704.5 1221 704.5H86C84.067 704.5 82.5 702.933 82.5 701V653C82.5 651.067 84.067 649.5 86 649.5Z" fill="#46C3DB" stroke="#46C3DB"/>
<path d="M86 532.5H1221C1222.38 532.5 1223.5 533.619 1223.5 535V585C1223.5 586.381 1222.38 587.5 1221 587.5H86C84.6193 587.5 83.5 586.381 83.5 585V535C83.5 533.619 84.6193 532.5 86 532.5Z" fill="white" stroke="#9B5E10" stroke-width="3"/>
<rect opacity="0.25" x="109.214" y="552" width="399.841" height="16" rx="8" fill="#9B5E10"/>
<path d="M86 449.5H1221C1222.38 449.5 1223.5 450.619 1223.5 452V502C1223.5 503.381 1222.38 504.5 1221 504.5H86C84.6193 504.5 83.5 503.381 83.5 502V452C83.5 450.619 84.6193 449.5 86 449.5Z" fill="white" stroke="#116BDF" stroke-width="3"/>
<rect opacity="0.25" x="109.214" y="469" width="244.929" height="16" rx="8" fill="#116BDF"/>
<path d="M86 366.5H1221C1222.38 366.5 1223.5 367.619 1223.5 369V419C1223.5 420.381 1222.38 421.5 1221 421.5H86C84.6193 421.5 83.5 420.381 83.5 419V369C83.5 367.619 84.6193 366.5 86 366.5Z" fill="white" stroke="#CED4DA" stroke-width="3"/>
<rect opacity="0.25" x="107.121" y="386" width="479.39" height="16" rx="8" fill="black" fill-opacity="0.5"/>
<rect x="82" y="305" width="28.1302" height="28" fill="black" fill-opacity="0.25"/>
<rect x="125.954" y="305" width="606.558" height="28" rx="14" fill="black" fill-opacity="0.5"/>
<rect x="82" y="238" width="28.1302" height="28" fill="#305A91"/>
<rect x="125.954" y="238" width="346.353" height="28" rx="14" fill="black" fill-opacity="0.5"/>
<rect x="82" y="146" width="389" height="43" rx="21.5" fill="black" fill-opacity="0.5"/>
<rect width="1280" height="86" fill="url(#paint0_linear_301_262)"/>
<rect x="1115" y="29" width="110" height="29" rx="14.5" fill="white"/>
<rect x="955" y="29" width="136" height="29" rx="14.5" fill="white"/>
<rect x="832" y="29" width="99" height="29" rx="14.5" fill="white"/>
<defs>
<linearGradient id="paint0_linear_301_262" x1="0" y1="43" x2="1280" y2="43.0002" gradientUnits="userSpaceOnUse">
<stop stop-color="#46C3DB"/>
<stop offset="1" stop-color="#2D6CDF"/>
</linearGradient>
</defs>
</svg>
